<?xml version="1.0" standalone="no"?>
<!DOCTYPE svg PUBLIC "-//W3C//DTD SVG 20010904//EN"
 "http://www.w3.org/TR/2001/REC-SVG-20010904/DTD/svg10.dtd">
<svg version="1.0" xmlns="http://www.w3.org/2000/svg"
 width="500.000000pt" height="500.000000pt" viewBox="0 0 500.000000 500.000000"
 preserveAspectRatio="xMidYMid meet">

<g transform="translate(0.000000,500.000000) scale(0.100000,-0.100000)"
fill="#000000" stroke="none">
<path d="M1824 3505 c-16 -11 -15 -12 10 -10 34 4 42 11 22 18 -8 3 -22 0 -32
-8z"/>
<path d="M1716 3415 c-11 -8 -15 -15 -9 -15 6 0 16 7 23 15 16 19 11 19 -14 0z"/>
<path d="M1536 3228 c-48 -54 -53 -63 -36 -73 6 -3 10 -11 10 -17 0 -6 -9 -3
-20 7 -20 18 -21 18 -14 0 5 -11 4 -16 -3 -12 -5 4 -15 -5 -22 -19 -9 -20 -9
-24 1 -18 7 4 4 -4 -8 -17 -36 -42 -56 -79 -42 -79 7 0 6 -5 -4 -12 -20 -17
-64 -130 -77 -201 -6 -32 -13 -61 -15 -65 -2 -4 -7 -43 -11 -87 -3 -44 -9 -88
-12 -98 -8 -31 18 -267 30 -260 7 4 8 0 4 -12 -10 -25 32 -175 49 -175 7 0 20
-12 28 -27 14 -26 15 -27 16 -5 0 12 -9 31 -20 42 -11 11 -16 20 -11 20 18 0
41 -32 41 -56 0 -14 4 -23 9 -20 4 3 8 -16 7 -42 -1 -46 0 -47 29 -47 l30 0 3
554 c2 455 0 557 -11 570 -21 25 -32 45 -19 37 5 -3 12 0 15 6 2 8 8 9 13 4 5
-5 4 -11 -3 -13 -14 -5 -18 -23 -5 -23 12 0 34 49 27 60 -3 5 3 11 12 13 17 4
17 5 1 6 -10 0 -18 5 -18 10 0 11 28 41 38 41 4 0 15 14 24 30 9 17 16 30 14
30 -2 0 -24 -23 -50 -52z m-99 -215 c1 -34 0 -35 -8 -14 -9 22 -6 51 4 51 2 0
3 -17 4 -37z m-47 -83 c0 -5 -5 -10 -11 -10 -5 0 -7 5 -4 10 3 6 8 10 11 10 2
0 4 -4 4 -10z m48 -97 c-4 -39 -28 -42 -28 -4 0 21 5 31 16 31 11 0 14 -8 12
-27z m-91 -175 c-3 -7 -5 -2 -5 12 0 14 2 19 5 13 2 -7 2 -19 0 -25z m91 -113
c-2 -90 -3 -96 -5 -35 -2 41 -8 79 -13 84 -5 5 -5 19 0 32 5 13 7 32 4 41 -5
15 -4 16 5 3 6 -9 10 -59 9 -125z m-115 45 c-3 -12 -8 -19 -11 -16 -5 6 5 36
12 36 2 0 2 -9 -1 -20z m34 -62 c-3 -8 -6 -5 -6 6 -1 11 2 17 5 13 3 -3 4 -12
1 -19z m-30 -120 c-3 -7 -5 -2 -5 12 0 14 2 19 5 13 2 -7 2 -19 0 -25z m20
-20 c-2 -13 -4 -5 -4 17 -1 22 1 32 4 23 2 -10 2 -28 0 -40z m0 -120 c-3 -7
-5 -2 -5 12 0 14 2 19 5 13 2 -7 2 -19 0 -25z m91 -22 c-1 -19 -6 -32 -10 -30
-12 8 -10 64 2 64 6 0 10 -15 8 -34z m-78 -41 c0 -8 -4 -15 -10 -15 -5 0 -7 7
-4 15 4 8 8 15 10 15 2 0 4 -7 4 -15z m57 -47 c-3 -8 -6 -5 -6 6 -1 11 2 17 5
13 3 -3 4 -12 1 -19z m20 -80 c-3 -8 -6 -5 -6 6 -1 11 2 17 5 13 3 -3 4 -12 1
-19z"/>
<path d="M1585 3210 c3 -5 8 -10 11 -10 2 0 4 5 4 10 0 6 -5 10 -11 10 -5 0
-7 -4 -4 -10z"/>
<path d="M1575 3170 c-3 -5 -2 -10 4 -10 5 0 13 5 16 10 3 6 2 10 -4 10 -5 0
-13 -4 -16 -10z"/>
<path d="M1540 3089 c0 -5 5 -7 10 -4 6 3 10 8 10 11 0 2 -4 4 -10 4 -5 0 -10
-5 -10 -11z"/>
<path d="M1372 2058 c13 -23 14 -29 17 -50 1 -8 7 -5 16 6 17 22 20 14 5 -13
-9 -19 15 -76 48 -114 9 -10 17 -25 18 -35 2 -9 9 -21 17 -27 7 -5 16 -18 20
-27 4 -12 12 -15 23 -11 12 4 15 3 10 -5 -4 -7 -3 -18 1 -26 7 -12 10 -11 23
2 13 14 12 15 -3 9 -13 -5 -17 -2 -15 11 2 10 -3 17 -12 17 -19 0 -31 29 -23
53 5 14 3 14 -11 -3 -13 -15 -16 -16 -13 -4 3 9 0 22 -6 29 -10 10 -8 12 6 7
14 -5 16 -3 9 10 -11 19 -4 53 11 53 6 0 8 3 4 6 -3 3 -11 2 -18 -2 -19 -11
-60 -11 -67 1 -3 5 -7 28 -7 50 0 27 -4 39 -13 37 -7 -1 -18 9 -24 23 -6 14
-15 25 -20 25 -5 0 -3 -10 4 -22z m108 -160 c0 -12 -1 -19 -3 -17 -1 2 -9 12
-16 22 -12 14 -11 17 3 17 10 0 16 -8 16 -22z"/>
<path d="M1511 1904 c0 -11 3 -14 6 -6 3 7 2 16 -1 19 -3 4 -6 -2 -5 -13z"/>
<path d="M1578 1738 c-7 -18 18 -53 27 -39 3 6 1 11 -5 11 -6 0 -9 4 -6 8 2 4
1 14 -3 21 -7 10 -9 10 -13 -1z"/>
<path d="M1641 1696 c-10 -12 -8 -17 11 -27 21 -11 22 -11 9 5 -13 15 -13 19
0 27 8 5 9 9 3 9 -6 0 -17 -6 -23 -14z"/>
<path d="M1620 1666 c0 -2 8 -10 18 -17 15 -13 16 -12 3 4 -13 16 -21 21 -21
13z"/>
<path d="M1665 1631 c-3 -5 -2 -12 3 -15 5 -3 9 1 9 9 0 17 -3 19 -12 6z"/>
<path d="M1755 1550 c-3 -5 -5 -10 -3 -11 33 -8 38 -7 27 7 -14 17 -16 17 -24
4z"/>
</g>
</svg>
